<svg version="1.2" xmlns="http://www.w3.org/2000/svg" viewBox="0 0 1063 1063" width="1063" height="1063">
	<title>piso2 (1)-svg</title>
	<style>
		.s0 { fill: #a3a3a3 } 
		.s1 { fill: #ffda9b } 
		.s2 { fill: #7946a4;stroke: #7745a3;stroke-linecap: round;stroke-linejoin: round;stroke-width: 2 } 
		.s3 { fill: #ff311b;stroke: #ff311b;stroke-linecap: round;stroke-linejoin: round;stroke-width: 2 } 
		.s4 { fill: #777568 } 
		.s5 { fill: #55cdd0;stroke: #55cdd0;stroke-linecap: round;stroke-linejoin: round;stroke-width: 2 } 
		.s6 { fill: #ff7923;stroke: #ff7923;stroke-linecap: round;stroke-linejoin: round;stroke-width: 2 } 
		.s7 { fill: #000000 } 
	</style>
	<path id="path2" fill-rule="evenodd" class="s0" d="m507.2 1035c-6.7-1.4-14.1-5.9-21.9-13.5-5.7-5.5-39.1-51.8-161.2-223.2l-154.1-216.3v-18.1l6.9-14.2c3.7-7.8 8.5-18.9 10.6-24.7 2.1-5.8 4.4-11.4 5.1-12.5 0.7-1.1 2.2-5 3.4-8.6 1.8-5.9 2-9.4 2-33.5 0.1-14.8 0.1-32.6 0.2-39.5 0.2-17.6-1.8-24.3-11.9-39.2-5.2-7.8-5.3-7.9-5.3-15.4 0-7.4-0.1-7.6-3.6-10.9-3.2-3.1-4.1-3.4-9.5-3.4-4.6 0-5.9-0.3-5.9-1.5 0-0.8-0.4-1.5-1-1.5-0.6 0-1-0.7-1-1.5 0-0.8-0.7-1.5-1.5-1.5-0.8 0-1.5-0.7-1.5-1.5 0-0.8-0.4-1.5-1-1.5-0.6 0-1-0.7-1-1.5 0-0.8-0.4-1.5-1-1.5-0.6 0-1-0.9-1-2 0-1.1-0.7-2-1.5-2-0.8 0-1.5-0.7-1.5-1.5 0-0.8-0.4-1.5-1-1.5-0.6 0-1-0.7-1-1.5 0-0.8-0.7-1.5-1.5-1.5-0.8 0-1.5-0.7-1.5-1.5 0-0.8-0.4-1.5-1-1.5-0.6 0-1-0.7-1-1.5 0-0.8-0.4-1.5-1-1.5-0.6 0-1-0.7-1-1.5 0-0.8-0.7-1.5-1.5-1.5-0.8 0-1.5-0.7-1.5-1.5 0-0.8-0.4-1.5-1-1.5-0.6 0-1-0.7-1-1.5 0-0.8-0.7-1.5-1.5-1.5-0.8 0-1.5-0.7-1.5-1.5 0-0.8-0.4-1.5-1-1.5-0.6 0-1-0.7-1-1.5 0-0.8-0.7-1.5-1.5-1.5-0.8 0-1.5-0.7-1.5-1.5 0-0.8-0.5-1.5-1-1.5-0.6 0-1-0.7-1-1.5 0-0.8-0.7-1.5-1.5-1.5-0.8 0-1.5-0.7-1.5-1.5 0-0.8-0.5-1.5-1-1.5-0.6 0-1-0.7-1-1.5 0-0.8-0.5-1.5-1-1.5-0.6 0-1-0.7-1-1.5 0-0.8-0.7-1.5-1.5-1.5-0.8 0-1.5-0.7-1.5-1.5 0-0.8-0.5-1.5-1-1.5-0.6 0-1-0.9-1-2 0-1.1-0.5-2-1-2-0.6 0-1-0.7-1-1.5 0-0.8-0.5-1.5-1-1.5-0.6 0-1-0.7-1-1.5 0-0.8-0.5-1.5-1-1.5-0.6 0-1-0.7-1-1.5 0-0.8-0.7-1.5-1.5-1.5-0.8 0-1.5-0.9-1.5-2 0-1.1-0.5-2-1-2-0.6 0-1-0.7-1-1.5 0-0.8-0.5-1.5-1-1.5-0.6 0-1-0.7-1-1.5 0-0.8-0.5-1.5-1-1.5-0.6 0-1-0.9-1-2 0-1.1-0.5-2-1-2-0.6 0-1-0.7-1-1.5 0-0.8-0.5-1.5-1-1.5-0.6 0-1-0.7-1-1.5 0-0.8-0.5-1.5-1-1.5-0.6 0-1-0.7-1-1.5 0-0.8-0.5-1.5-1-1.5-0.6 0-1-0.9-1-2 0-1.1-0.5-2-1-2-0.6 0-1-0.7-1-1.5 0-0.8-0.5-1.5-1-1.5-0.6 0-1-0.9-1-2 0-1.1-0.4-2-0.9-2-0.5 0-1.2-1.3-1.6-3-0.4-1.7-1.1-3-1.6-3-0.5 0-0.9-0.9-0.9-2 0-1.1-0.5-2-1-2-0.6 0-1-0.7-1-1.5 0-0.8-0.5-1.5-1-1.5-0.6 0-1-0.9-1-2 0-1.1-0.5-2-1-2-0.6 0-1-0.6-1-1.4 0-0.8-0.6-1.7-1.3-1.9-0.7-0.4-0.3-0.8 1-1.2 1.3-0.4 2.3-1.1 2.3-1.6 0-0.5 0.9-0.9 2-0.9 1.1 0 2-0.4 2-1 0-0.6 0.7-1 1.5-1 0.8 0 1.5-0.4 1.5-1 0-0.6 0.9-1 2-1 1.1 0 2-0.4 2-1 0-0.6 0.7-1 1.5-1 0.8 0 1.5-0.4 1.5-1 0-0.6 0.7-1 1.5-1 0.8 0 1.5-0.4 1.5-1 0-0.6 0.7-1 1.5-1 0.8 0 1.5-0.7 1.5-1.5 0-0.8 0.7-1.5 1.5-1.5 0.8 0 1.5-0.4 1.5-1 0-0.6 0.9-1 2-1 1.1 0 2-0.4 2-1 0-0.5 1.6-1.2 3.5-1.6 1.9-0.3 3.5-1 3.5-1.5 0-0.4 1.6-1.1 3.5-1.5 1.9-0.3 3.5-0.9 3.5-1.3 0-0.4 4.9-2 11-3.6 6.1-1.5 11-3.2 11-3.6 0-0.5 0.9-0.9 2-0.9 1.1 0 2-0.4 2-1 0-0.5 1.6-1.2 3.5-1.6 1.9-0.3 3.5-1 3.5-1.5 0-0.5 0.7-0.9 1.5-0.9 0.8 0 1.5-0.4 1.5-1 0-0.6 0.9-1 2-1 1.1 0 2-0.4 2-1 0-0.6 0.7-1 1.5-1 0.8 0 1.5-0.4 1.5-1 0-0.6 0.7-1 1.5-1 0.8 0 1.5-0.7 1.5-1.5 0-0.8 0.7-1.5 1.5-1.5 0.8 0 1.5-0.4 1.5-0.9 0-0.5 1.6-1.2 3.5-1.5 1.9-0.4 3.5-1.1 3.5-1.6 0-0.6 0.9-1 2-1 1.1 0 2-0.4 2-1 0-0.5 1.6-1.2 3.5-1.6 1.9-0.3 3.5-1 3.5-1.5 0-0.4 1.6-1.1 3.5-1.5 1.9-0.3 3.5-1 3.5-1.4 0-0.4 1.2-1 2.7-1.3 2.6-0.5 5.3 1.1 5.3 3.2 0 0.6 0.7 1.1 1.5 1.1 0.8 0 1.5 0.7 1.5 1.5 0 0.8 0.4 1.5 1 1.5 0.6 0 1 0.7 1 1.5 0 0.8 0.4 1.5 1 1.5 0.6 0 1 0.9 1 2 0 1.1 0.7 2 1.5 2 0.8 0 1.5 0.7 1.5 1.5 0 0.8 0.4 1.5 1 1.5 0.6 0 1 0.7 1 1.5 0 0.8 0.7 1.5 1.5 1.5 0.8 0 1.5 0.7 1.5 1.5 0 0.8 0.4 1.5 1 1.5 0.6 0 1 0.7 1 1.5 0 0.8 0.4 1.5 1 1.5 0.6 0 1 0.7 1 1.5 0 0.8 0.7 1.5 1.5 1.5 0.8 0 1.5 0.7 1.5 1.5 0 0.8 0.4 1.5 1 1.5 0.6 0 1 0.7 1 1.5 0 0.8 0.4 1.5 0.9 1.5 0.5 0 1.2 1.6 1.5 3.5 0.4 1.9 1.1 3.5 1.6 3.5 0.6 0 1 0.9 1 2 0 1.1 0.4 2 1 2 0.5 0 1.2 1.6 1.6 3.5 0.3 1.9 1 3.5 1.5 3.5 0.5 0 0.9 0.9 0.9 2 0 1.1 0.4 2 1 2 0.6 0 1 0.7 1 1.5 0 0.8 0.7 1.5 1.5 1.5 1.5 0 1.9 1.3 3 8.8 1 7.7-0.2 7.4 33.7 7 22.2-0.2 30.2-0.6 30.5-1.5 0.2-0.6 2.9-1.7 5.9-2.4 3-0.7 5.4-1.6 5.4-2.1 0-0.4 0.7-0.8 1.5-0.8 0.8 0 1.5-0.4 1.5-0.8 0-0.5 2.5-1.5 5.5-2.2 3-0.7 5.5-1.6 5.5-2 0-0.4 1.6-1.1 3.5-1.4 1.9-0.4 3.5-1 3.5-1.4 0-0.5 3.4-1.6 7.5-2.7 4.1-1 7.5-2.1 7.5-2.5 0-0.3 4.3-1.7 9.5-3 5.2-1.3 9.5-2.8 9.5-3.2 0-0.4 1.6-1 3.5-1.4 1.9-0.3 3.5-1 3.5-1.4 0-0.4 1.6-1.1 3.5-1.4 1.9-0.4 3.5-1.1 3.5-1.5 0-0.5 1.6-1.2 3.5-1.5 1.9-0.4 3.5-1.1 3.5-1.6 0-0.4 1.8-1.1 4-1.5 2.2-0.4 4-1.1 4-1.5 0-0.5 1.6-1.2 3.5-1.6 1.9-0.3 3.5-1 3.5-1.5 0-0.5 0.7-0.9 1.5-0.9 0.8 0 1.5-0.4 1.5-0.9 0-0.5 1.6-1.2 3.5-1.5 1.9-0.4 3.5-1.1 3.5-1.5 0-0.5 1.6-1.2 3.5-1.5 1.9-0.4 3.5-1.1 3.5-1.6 0-0.6 0.9-1 2-1 1.1 0 2-0.5 2-1 0-0.6 0.7-1 1.5-1 0.8 0 1.5-0.5 1.5-1 0-0.6 0.7-1 1.5-1 0.8 0 1.5-0.5 1.5-1 0-0.6 0.9-1 2-1 1.1 0 2-0.5 2-1 0-0.6 0.7-1 1.5-1 0.8 0 1.5-0.5 1.5-1 0-0.6 0.7-1 1.5-1 0.8 0 1.5-0.7 1.5-1.5 0-0.8 0.9-1.5 2-1.5 1.1 0 2-0.5 2-1 0-0.6 0.7-1 1.5-1 0.8 0 1.5-0.5 1.5-1 0-0.6 0.7-1 1.5-1 0.8 0 1.5-0.5 1.5-1 0-0.6 0.9-1 2-1 1.1 0 2-0.5 2-1 0-0.6 0.7-1 1.5-1 0.8 0 1.5-0.5 1.5-1 0-0.6 0.7-1 1.5-1 0.8 0 1.5-0.5 1.5-1 0-0.6 0.7-1 1.5-1 0.8 0 1.5-0.5 1.5-1 0-0.6 0.9-1 2-1 1.1 0 2-0.6 2-1.4 0-0.8 1.4-1.7 3-2.1 1.6-0.4 3-1.1 3-1.6 0-0.5 0.9-0.9 2-0.9 1.1 0 2-0.5 2-1 0-0.6 0.7-1 1.5-1 0.8 0 1.5-0.4 1.5-0.9 0-0.5 1.6-1.2 3.5-1.5 1.9-0.4 3.5-1.1 3.5-1.6 0-0.6 0.9-1 2-1 1.1 0 2-0.5 2-1 0-0.6 0.7-1 1.5-1 0.8 0 1.5-0.7 1.5-1.5 0-1.3 2.9-1.5 20.5-1.5h20.5v87.4c0 82.4 0.1 87.5 1.7 88 1 0.3 98.8 19.9 217.3 43.6 118.5 23.6 216.8 43.5 218.5 44.2 9.2 3.6 16.2 11.4 19 21.3 0.8 2.7 8.7 52.5 17.5 110.5 8.8 58 16.3 107.1 16.6 109 0.8 4.9-1.1 14.5-4.3 21-2.9 6-11.2 15.4-17.1 19.3-2 1.3-33.5 18.8-69.9 38.8l-66.2 36.3-58.2 118.6c-32 65.2-59.8 120.9-61.8 123.9-4.9 7.5-12.7 13.3-22.5 16.8l-8.1 2.8-105.5 0.2c-58 0-107.4-0.3-109.8-0.7zm-40.2-488.3l4-2.2v-9.2-9.3h-9.2c-6.1 0-10.7 0.5-13.5 1.6l-4.3 1.7v19.7h9.6c8 0 10.1-0.3 13.4-2.2z"/>
	<path id="Criaturas Magnificas"  class="s1" d="m474.5 592.5l102.7-20.6 148 10.3 56.3 14.7 56.7-43.7 42.6-25.6 73.3 38.3-33.8 98.4-231.1 121.1-72.6 4.8-115.9-45.2-26.2-45-14.7-43.8z"/>
	<path id="Comprendo" class="s2" d="m499.5 44.3h41.5c0 0 1.4 248.1 0 292-1.1 32.9 24 38.2 24 38.2l41.5 8.5 17.3 101-68.7 31.9h-68.8l-232.2-323.2c0 0 225.7-86.4 233.7-89.5 7.9-3 11.8-5.5 11.8-19 0-13.6-0.1-39.9-0.1-39.9z"/>
	<path id="Soy" class="s3" d="m491.3 516.9l-74.4 20.8-36.1-38.4c0 0-3 3.3-7.7 3l-20.6 0.3c0 0-12.1-0.3-16.8 10.8l-68.8 136.5 216.5 303.9c0 0 5.3 10 10.8 14.3q8.2 6.3 21.9 5.7l223.9 0.1c0 0 16.4-1.7 21.3-7.8l-19.7-102.7-58.6-93.5-25.2 10c0 0-32.5 11.2-72.2-12.1l-100.8-58.9 10.9-19.7c0 0-36.4-23.1-19.7-62 16.7-38.8 57.7-30.6 57.7-30.6z"/>
	<path id="Criaturas Magnificas2" class="s4" d="m255.3 398.4l-44.6 47.8-13.7-12.3-12.2-44.6c0 0-0.5-9.2-8.7-14.2l-118.4-89.1c0 0-15.5-10-15.5-32.8 0-22.7 23.2-32.5 23.2-32.5l129.2-51.6c0 0 28.8-14.4 48.5 8.1l245.5 342-39.5 11.4-82.7-86.3-21.4-40.5-127.6-155.9c0 0-9.8-13.3-24.8-8.8l-46.5 17.8c0 0-16.5 6.9-4.1 23.2z"/>
	<path id="Pequeños" class="s5" d="m887 655.2l-208.9 114.4 58.6 93.5 19.7 102.9 11.4-9.8 56-115.2c0 0 5.8-8.1 4.1-18.6-1.7-10.6-5.1-13.1 2.9-29.1l10.2-21.5c0 0 2.9-8.9 12.6-13.1l69.4-38.8z"/>
	<path id="Expreso"  class="s6" d="m841.7 429.2c0 0 11.8-21.7 32.3-16.6l95.4 18.9c0 0 24 3.2 25.2 30.4l27.4 177.9c0 0 5.5 23-12.5 32.7l-88 48.2-36-64.7 18.9-11.1c0 0 20.5-15.1 20.9-40.6 0 0-1.3-37.5-17.5-49.8-16.2-12.3-43.2-11.9-59.2 14.6 0 0-37.5 65.1-118.3 48.7 0 0-69.7-19.2-108.6-21.9 0 0-47.8-3.6-93.6 0.5l-41.4-79.9 67.8 0.2 68.8-31.9-17.3-101 132.3 25.4z"/>
	<path id="Arramberi"  class="s7" d="m250.9 362.7c-12-11.1-15.8-14.8-20.4-20-5.7-6.4-7.1-6.7-18.9-4.6-12.6 2.3-22.6-1.7-12.6-5.1 2.5-0.9 6.8-2.4 9.7-3.5l5.2-1.9-4.2-4.5c-2.4-2.5-5.2-6.8-6.3-9.4-1.9-4.8-1.9-4.8-5.9-4.1-5.6 1-21 0.6-25.7-0.6-5-1.4-4.9-4.2 0.2-5.1 1.9-0.4 6.2-1.4 9.5-2.3 3.2-0.9 7.6-1.6 9.7-1.6 6.5 0 4.9-6.1-7.1-27.5-6.6-11.8-5.9-11.8 6.2 0.1 17.5 17.2 20 18.5 22.3 12.6 3.6-9 10-21.2 11.1-21.2 3.6 0 2.7 11.9-1.8 24.3l-3.1 8.6 5.5 5c3 2.8 6 6.4 6.7 8.1 1.8 4.4 1.4 4.7 11.3-9.1 6.8-9.4 7.2-0.2 0.6 14.2-5.2 11.5-5 13.8 2.1 22.9 1.6 2 4.9 7.8 7.5 13 2.5 5.2 5 9.9 5.6 10.4 5.4 5.5-1.3 6.7-7.2 1.3z"/>
</svg>